<svg width="24" height="24" viewBox="0 0 24 24" fill="none" xmlns="http://www.w3.org/2000/svg">
<g clip-path="url(#clip0_665_3428)">
<path d="M21.3335 3.33301H2.66683C2.31321 3.33301 1.97407 3.47348 1.72402 3.72353C1.47397 3.97358 1.3335 4.31272 1.3335 4.66634V19.333C1.3335 19.6866 1.47397 20.0258 1.72402 20.2758C1.97407 20.5259 2.31321 20.6663 2.66683 20.6663H21.3335C21.6871 20.6663 22.0263 20.5259 22.2763 20.2758C22.5264 20.0258 22.6668 19.6866 22.6668 19.333V4.66634C22.6668 4.31272 22.5264 3.97358 22.2763 3.72353C22.0263 3.47348 21.6871 3.33301 21.3335 3.33301ZM2.66683 19.333V4.66634H21.3335V19.333H2.66683Z" fill="#4A321F"/>
<path d="M10.4135 10.1476L6.40153 15.9783L3.7002 13.5889L4.40686 12.7903L6.20553 14.3809L10.4229 8.25293L14.9229 14.9296L19.4255 8.9796L20.2762 9.6236L14.8722 16.7629L10.4135 10.1476Z" fill="#4A321F"/>
</g>
<defs>
<clipPath id="clip0_665_3428">
<rect width="24" height="24" fill="white"/>
</clipPath>
</defs>
</svg>
