<svg width="213" height="28" viewBox="0 0 213 28" fill="none" xmlns="http://www.w3.org/2000/svg">
<path d="M11.8828 27.2461H0L9.31641 0.421875H26.2441L35.5605 27.2461H23.6953L22.1484 22.7109H13.4297L11.8828 27.2461ZM15.5918 16.3828H19.9863L17.7891 9.7207L15.5918 16.3828ZM60.75 1.79297L57.7969 10.248C55.8633 7.63477 53.6426 6.32812 51.1348 6.32812C49.7402 6.32812 49.043 6.85547 49.043 7.91016C49.043 8.23828 49.2598 8.57227 49.6934 8.91211C50.1387 9.25195 51.293 9.78516 53.1562 10.5117C55.207 11.3203 56.7832 12.0586 57.8848 12.7266C58.998 13.3828 59.8301 14.2266 60.3809 15.2578C60.9316 16.2891 61.207 17.4902 61.207 18.8613C61.207 21.7324 60.1172 23.9238 57.9375 25.4355C55.7578 26.9355 52.5527 27.6855 48.3223 27.6855C43.5762 27.6855 39.4863 27.0117 36.0527 25.6641L38.9531 16.6992C39.7969 18.0117 40.8398 19.0547 42.082 19.8281C43.3359 20.6016 44.5371 20.9883 45.6855 20.9883C46.248 20.9883 46.7168 20.8418 47.0918 20.5488C47.4785 20.2559 47.6719 19.8984 47.6719 19.4766C47.6719 19.0781 47.4844 18.6973 47.1094 18.334C46.7461 17.9707 45.7734 17.4668 44.1914 16.8223C42.7617 16.248 41.5781 15.6914 40.6406 15.1523C39.7031 14.6016 38.8887 13.8223 38.1973 12.8145C37.5059 11.8066 37.1602 10.5352 37.1602 9C37.1602 6.02344 38.2441 3.7793 40.4121 2.26758C42.5801 0.755859 45.7793 0 50.0098 0C53.877 0 57.457 0.597656 60.75 1.79297ZM87.0117 1.79297L84.0586 10.248C82.125 7.63477 79.9043 6.32812 77.3965 6.32812C76.002 6.32812 75.3047 6.85547 75.3047 7.91016C75.3047 8.23828 75.5215 8.57227 75.9551 8.91211C76.4004 9.25195 77.5547 9.78516 79.418 10.5117C81.4688 11.3203 83.0449 12.0586 84.1465 12.7266C85.2598 13.3828 86.0918 14.2266 86.6426 15.2578C87.1934 16.2891 87.4688 17.4902 87.4688 18.8613C87.4688 21.7324 86.3789 23.9238 84.1992 25.4355C82.0195 26.9355 78.8145 27.6855 74.584 27.6855C69.8379 27.6855 65.748 27.0117 62.3145 25.6641L65.2148 16.6992C66.0586 18.0117 67.1016 19.0547 68.3438 19.8281C69.5977 20.6016 70.7988 20.9883 71.9473 20.9883C72.5098 20.9883 72.9785 20.8418 73.3535 20.5488C73.7402 20.2559 73.9336 19.8984 73.9336 19.4766C73.9336 19.0781 73.7461 18.6973 73.3711 18.334C73.0078 17.9707 72.0352 17.4668 70.4531 16.8223C69.0234 16.248 67.8398 15.6914 66.9023 15.1523C65.9648 14.6016 65.1504 13.8223 64.459 12.8145C63.7676 11.8066 63.4219 10.5352 63.4219 9C63.4219 6.02344 64.5059 3.7793 66.6738 2.26758C68.8418 0.755859 72.041 0 76.2715 0C80.1387 0 83.7188 0.597656 87.0117 1.79297ZM90.8438 27.2461V0.421875H102.709V27.2461H90.8438ZM107.947 27.2461V0.421875H119.479L124.33 6.01172L129.199 0.421875H140.713V27.2461H128.83V13.8164L124.33 19.002L119.83 13.8164V27.2461H107.947ZM145.969 27.2461V0.421875H157.834V27.2461H145.969ZM163.072 27.2461V0.421875H174.604L179.455 6.01172L184.324 0.421875H195.838V27.2461H183.955V13.8164L179.455 19.002L174.955 13.8164V27.2461H163.072ZM201.094 27.2461V0.421875H212.959V27.2461H201.094Z" fill="#3C1F0E"/>
</svg>
