<svg width="16" height="14" viewBox="0 0 16 14" fill="none" xmlns="http://www.w3.org/2000/svg">
<path d="M7.99978 0.111328C4.07978 0.111328 0.888672 2.90244 0.888672 6.33355C0.888672 9.76466 4.07978 12.5558 7.99978 12.5558C8.73318 12.5549 9.46298 12.4532 10.1687 12.2536L12.6264 13.818C12.6935 13.861 12.771 13.8853 12.8507 13.8881C12.9303 13.8909 13.0093 13.8723 13.0793 13.8341C13.1493 13.7959 13.2077 13.7396 13.2484 13.6711C13.2892 13.6026 13.3108 13.5244 13.3109 13.4447V10.4536C13.867 9.92007 14.3108 9.28074 14.6161 8.57318C14.9214 7.86563 15.0821 7.10414 15.0887 6.33355C15.1109 2.90244 11.9198 0.111328 7.99978 0.111328ZM11.5553 6.33355C11.5553 6.45142 11.5085 6.56447 11.4252 6.64782C11.3418 6.73117 11.2288 6.77799 11.1109 6.77799H4.88867C4.7708 6.77799 4.65775 6.73117 4.5744 6.64782C4.49105 6.56447 4.44423 6.45142 4.44423 6.33355C4.44423 6.21568 4.49105 6.10263 4.5744 6.01928C4.65775 5.93593 4.7708 5.88911 4.88867 5.88911H11.1109C11.2288 5.88911 11.3418 5.93593 11.4252 6.01928C11.5085 6.10263 11.5553 6.21568 11.5553 6.33355ZM10.1109 8.55577C10.1109 8.67365 10.0641 8.78669 9.98072 8.87004C9.89737 8.95339 9.78432 9.00022 9.66645 9.00022H6.33312C6.21524 9.00022 6.1022 8.95339 6.01885 8.87004C5.9355 8.78669 5.88867 8.67365 5.88867 8.55577C5.88867 8.4379 5.9355 8.32485 6.01885 8.2415C6.1022 8.15815 6.21524 8.11133 6.33312 8.11133H9.66645C9.78432 8.11133 9.89737 8.15815 9.98072 8.2415C10.0641 8.32485 10.1109 8.4379 10.1109 8.55577ZM4.56867 4.11133C4.56867 3.99345 4.6155 3.88041 4.69885 3.79706C4.7822 3.71371 4.89524 3.66688 5.01312 3.66688H10.9864C11.1043 3.66688 11.2174 3.71371 11.3007 3.79706C11.3841 3.88041 11.4309 3.99345 11.4309 4.11133C11.4309 4.2292 11.3841 4.34225 11.3007 4.4256C11.2174 4.50895 11.1043 4.55577 10.9864 4.55577H5.01312C4.89524 4.55577 4.7822 4.50895 4.69885 4.4256C4.6155 4.34225 4.56867 4.2292 4.56867 4.11133Z" fill="#4A321F"/>
</svg>
