<svg width="24" height="24" viewBox="0 0 24 24" fill="none" xmlns="http://www.w3.org/2000/svg">
<g clip-path="url(#clip0_395_3722)">
<path d="M22.4132 11.6867C20.1665 7.53335 16.2265 5.02002 11.8665 5.02002C7.50648 5.02002 3.55982 7.53335 1.33315 11.6867L1.14648 12L1.31982 12.32C3.56648 16.4734 7.50648 18.9867 11.8665 18.9867C16.2265 18.9867 20.1732 16.5067 22.4132 12.32L22.5865 12L22.4132 11.6867ZM11.8665 17.62C8.11315 17.62 4.66648 15.5267 2.66648 12C4.66648 8.47335 8.11315 6.38002 11.8665 6.38002C15.6198 6.38002 19.0265 8.48002 21.0598 12C19.0265 15.5267 15.6132 17.62 11.8665 17.62Z" fill="#848484"/>
<path d="M12.06 7.44666C11.1561 7.45325 10.2744 7.72757 9.52626 8.23498C8.77815 8.74238 8.19719 9.4601 7.85676 10.2975C7.51632 11.1349 7.43167 12.0544 7.61351 12.9398C7.79534 13.8253 8.23551 14.637 8.8784 15.2725C9.5213 15.9079 10.3381 16.3386 11.2256 16.5101C12.1131 16.6816 13.0316 16.5863 13.865 16.2361C14.6983 15.886 15.4092 15.2967 15.9079 14.5427C16.4065 13.7888 16.6706 12.9039 16.6666 12C16.664 11.3983 16.5427 10.803 16.3096 10.2483C16.0765 9.69353 15.7363 9.19025 15.3083 8.76726C14.8804 8.34427 14.3731 8.00988 13.8157 7.78327C13.2583 7.55665 12.6617 7.44226 12.06 7.44666ZM12.06 15.26C11.4215 15.2534 10.7992 15.0583 10.2712 14.6992C9.74321 14.3401 9.33311 13.833 9.09241 13.2415C8.8517 12.6501 8.79111 12.0008 8.91825 11.375C9.0454 10.7493 9.3546 10.1751 9.80703 9.72446C10.2595 9.27388 10.8349 8.96702 11.4612 8.84243C12.0875 8.71785 12.7366 8.78108 13.327 9.0242C13.9174 9.26732 14.4229 9.67949 14.7798 10.2089C15.1368 10.7384 15.3293 11.3615 15.3333 12C15.3351 12.4297 15.2515 12.8555 15.0875 13.2527C14.9235 13.6499 14.6822 14.0106 14.3777 14.3139C14.0732 14.6171 13.7116 14.8569 13.3137 15.0193C12.9158 15.1817 12.4897 15.2635 12.06 15.26Z" fill="#848484"/>
</g>
<defs>
<clipPath id="clip0_395_3722">
<rect width="24" height="24" fill="white"/>
</clipPath>
</defs>
</svg>
