<svg width="24" height="24" viewBox="0 0 24 24" fill="none" xmlns="http://www.w3.org/2000/svg">
<g clip-path="url(#clip0_395_3726)">
<path d="M12.2465 7.44678C11.707 7.44755 11.1719 7.54463 10.6665 7.73344L16.5332 13.6001C16.7243 13.0884 16.8215 12.5464 16.8198 12.0001C16.8145 10.7907 16.3304 9.63254 15.4733 8.7792C14.6162 7.92585 13.456 7.44677 12.2465 7.44678Z" fill="#848484"/>
<path d="M22.8598 11.6867C20.6132 7.53335 16.6732 5.02002 12.3132 5.02002C11.126 5.02258 9.94688 5.21386 8.81982 5.58669L9.89316 6.66669C10.6838 6.46251 11.4966 6.35726 12.3132 6.35335C16.0665 6.35335 19.4798 8.44669 21.5132 11.9734C20.7666 13.2813 19.7779 14.4352 18.5998 15.3734L19.5465 16.32C20.9109 15.22 22.0438 13.8604 22.8798 12.32L23.0532 12L22.8598 11.6867Z" fill="#848484"/>
<path d="M3.24643 3.85344L6.21976 6.82677C4.33998 8.03639 2.80387 9.71027 1.75976 11.6868L1.58643 12.0001L1.75976 12.3201C4.00643 16.4734 7.94642 18.9868 12.3064 18.9868C14.0083 18.9871 15.6881 18.6019 17.2198 17.8601L20.5531 21.1934L21.7198 20.1934L4.38643 2.86011L3.24643 3.85344ZM8.77976 9.38677C8.15605 10.2664 7.86371 11.3383 7.9545 12.4128C8.0453 13.4872 8.51336 14.4949 9.27583 15.2574C10.0383 16.0198 11.046 16.4879 12.1204 16.5787C13.1949 16.6695 14.2668 16.3772 15.1464 15.7534L16.2131 16.8201C14.9783 17.3481 13.6493 17.6203 12.3064 17.6201C8.55309 17.6201 5.13976 15.5268 3.10643 12.0001C4.08247 10.2724 5.48776 8.82581 7.18643 7.80011L8.77976 9.38677Z" fill="#848484"/>
</g>
<defs>
<clipPath id="clip0_395_3726">
<rect width="24" height="24" fill="white"/>
</clipPath>
</defs>
</svg>
