<svg width="24" height="24" viewBox="0 0 24 24" fill="none" xmlns="http://www.w3.org/2000/svg">
<path d="M12.9403 12L18.467 6.47329C18.5762 6.34576 18.6333 6.18171 18.6268 6.01393C18.6203 5.84614 18.5507 5.68698 18.432 5.56825C18.3133 5.44952 18.1541 5.37997 17.9863 5.37349C17.8186 5.36701 17.6545 5.42408 17.527 5.53329L12.0003 11.06L6.47364 5.52663C6.34811 5.40109 6.17784 5.33057 6.00031 5.33057C5.82277 5.33057 5.65251 5.40109 5.52697 5.52663C5.40144 5.65216 5.33091 5.82243 5.33091 5.99996C5.33091 6.1775 5.40144 6.34776 5.52697 6.47329L11.0603 12L5.52697 17.5266C5.45719 17.5864 5.40051 17.6599 5.36049 17.7426C5.32048 17.8254 5.29799 17.9154 5.29444 18.0073C5.2909 18.0991 5.30637 18.1906 5.33988 18.2762C5.3734 18.3617 5.42424 18.4394 5.48921 18.5044C5.55418 18.5694 5.63188 18.6202 5.71743 18.6537C5.80298 18.6872 5.89453 18.7027 5.98634 18.6992C6.07816 18.6956 6.16824 18.6731 6.25095 18.6331C6.33366 18.5931 6.40721 18.5364 6.46697 18.4666L12.0003 12.94L17.527 18.4666C17.6545 18.5758 17.8186 18.6329 17.9863 18.6264C18.1541 18.62 18.3133 18.5504 18.432 18.4317C18.5507 18.3129 18.6203 18.1538 18.6268 17.986C18.6333 17.8182 18.5762 17.6542 18.467 17.5266L12.9403 12Z" fill="#4A321F"/>
</svg>
