<svg width="24" height="24" viewBox="0 0 24 24" fill="none" xmlns="http://www.w3.org/2000/svg">
<g clip-path="url(#clip0_665_3432)">
<path d="M11.9332 11.5331C13.7332 11.5331 15.1332 10.0664 15.1332 8.26641C15.1332 6.46641 13.6665 5.06641 11.8665 5.06641C10.0665 5.06641 8.6665 6.53307 8.6665 8.26641C8.6665 10.0664 10.1332 11.5331 11.9332 11.5331ZM11.8665 6.39974C11.9332 6.39974 11.9332 6.39974 11.8665 6.39974C12.9332 6.39974 13.7998 7.26641 13.7998 8.33307C13.7998 9.39974 12.9332 10.1997 11.8665 10.1997C10.7998 10.1997 9.99984 9.33307 9.99984 8.33307C9.99984 7.26641 10.8665 6.39974 11.8665 6.39974Z" fill="#4A321F"/>
<path d="M21.8 11.1336C20.5333 10.0003 18.8667 9.40026 17.1333 9.46693H16.6C16.4667 10.0003 16.2667 10.4669 16 10.8669C16.4 10.8003 16.7333 10.8003 17.1333 10.8003C18.4 10.7336 19.6667 11.1336 20.6667 11.8669V16.6669H22V11.3336L21.8 11.1336Z" fill="#4A321F"/>
<path d="M15.5998 5.19954C15.9332 4.39954 16.8665 3.99954 17.7332 4.33288C18.5332 4.66621 18.9332 5.59954 18.5998 6.46621C18.3332 7.06621 17.7332 7.46621 17.1332 7.46621C16.9998 7.46621 16.7998 7.46621 16.6665 7.39954C16.7332 7.73288 16.7332 8.06621 16.7332 8.33288V8.73288C16.8665 8.73288 16.9998 8.79954 17.1332 8.79954C18.7998 8.79954 20.1332 7.46621 20.1332 5.86621C20.1332 4.19954 18.7998 2.86621 17.1998 2.86621C16.1332 2.86621 15.1998 3.39954 14.6665 4.33288C14.9998 4.53288 15.3332 4.79954 15.5998 5.19954Z" fill="#4A321F"/>
<path d="M8 10.9333C7.73333 10.5333 7.53333 10.0667 7.4 9.53335H6.86667C5.13333 9.46668 3.46667 10.0667 2.2 11.1333L2 11.3333V16.6667H3.33333V11.8667C4.4 11.1333 5.6 10.7333 6.86667 10.8C7.26667 10.8 7.66667 10.8667 8 10.9333Z" fill="#4A321F"/>
<path d="M6.86668 8.73311C7.00001 8.73311 7.13334 8.73311 7.26667 8.66645V8.26645C7.26667 7.93311 7.26668 7.59978 7.33334 7.33311C7.20001 7.39978 7.00001 7.39978 6.86668 7.39978C6.00001 7.39978 5.26668 6.66645 5.26668 5.79978C5.26668 4.93311 6.00001 4.19978 6.86668 4.19978C7.53334 4.19978 8.13334 4.59978 8.40001 5.19978C8.66668 4.86645 9.06668 4.53311 9.40001 4.26645C8.53334 2.86645 6.73334 2.39978 5.33334 3.26645C3.93334 4.13311 3.46668 5.93311 4.33334 7.33311C4.86668 8.19978 5.80001 8.73311 6.86668 8.73311Z" fill="#4A321F"/>
<path d="M17.3998 15.1333L17.2665 14.9333C15.9332 13.4667 14.0665 12.6 12.0665 12.6667C10.0665 12.6 8.13317 13.4667 6.79984 14.9333L6.6665 15.1333V20.2C6.6665 20.8 7.13317 21.3333 7.79984 21.3333H16.3332C16.9332 21.3333 17.4665 20.8 17.4665 20.2V15.1333H17.3998ZM16.0665 20H7.99984V15.6C9.0665 14.5333 10.5332 14 12.0665 14C13.5332 13.9333 14.9998 14.5333 16.0665 15.6V20Z" fill="#4A321F"/>
</g>
<defs>
<clipPath id="clip0_665_3432">
<rect width="24" height="24" fill="white"/>
</clipPath>
</defs>
</svg>
