<svg width="171" height="48" viewBox="0 0 171 48" fill="none" xmlns="http://www.w3.org/2000/svg">
<path d="M0.4 13.12C0.4 10.7216 0.400353 8.94846 0.522186 7.54916C0.643569 6.15502 0.883231 5.16966 1.34007 4.33867C2.03485 3.07487 3.07487 2.03485 4.33867 1.34007C5.16966 0.883231 6.15502 0.643569 7.54916 0.522186C8.94846 0.400353 10.7216 0.4 13.12 0.4H157.88C160.278 0.4 162.052 0.400353 163.451 0.522186C164.845 0.643569 165.83 0.883231 166.661 1.34007C167.925 2.03485 168.965 3.07487 169.66 4.33867C170.117 5.16966 170.356 6.15502 170.478 7.54916C170.6 8.94846 170.6 10.7216 170.6 13.12V34.88C170.6 37.2784 170.6 39.0515 170.478 40.4508C170.356 41.845 170.117 42.8303 169.66 43.6613C168.965 44.9251 167.925 45.9651 166.661 46.6599C165.83 47.1168 164.845 47.3564 163.451 47.4778C162.052 47.5996 160.278 47.6 157.88 47.6H13.12C10.7216 47.6 8.94846 47.5996 7.54916 47.4778C6.15502 47.3564 5.16966 47.1168 4.33867 46.6599C3.07487 45.9651 2.03485 44.9251 1.34007 43.6613C0.883231 42.8303 0.643569 41.845 0.522186 40.4508C0.400353 39.0515 0.4 37.2784 0.4 34.88V13.12Z" stroke="#A7A7A7" stroke-width="0.8"/>
<path d="M57.5001 24.0735C57.5001 17.4045 52.1271 11.9985 45.5001 11.9985C38.8701 12 33.4971 17.4045 33.4971 24.075C33.4971 30.1005 37.8861 35.0955 43.6221 36.0015V27.564H40.5771V24.075H43.6251V21.4125C43.6251 18.387 45.4176 16.716 48.1581 16.716C49.4721 16.716 50.8446 16.9515 50.8446 16.9515V19.9215H49.3311C47.8416 19.9215 47.3766 20.853 47.3766 21.8085V24.0735H50.7036L50.1726 27.5625H47.3751V36C53.1111 35.094 57.5001 30.099 57.5001 24.0735Z" fill="#4A321F"/>
<path d="M75.4526 21.168H74.8301C74.7139 20.7308 74.4704 20.2632 74.0996 19.7651C73.7344 19.2671 73.383 18.9932 73.0454 18.9434C72.8739 18.9212 72.6691 18.9046 72.4312 18.8936C72.1987 18.8825 71.9331 18.877 71.6343 18.877H69.6587V23.6084H71.0117C71.4212 23.6084 71.7394 23.5669 71.9663 23.4839C72.1932 23.3953 72.3869 23.2625 72.5474 23.0854C72.658 22.9637 72.7576 22.7756 72.8462 22.521C72.9403 22.2609 73.0011 21.9842 73.0288 21.6909H73.6597V26.3145H73.0288C73.0122 26.071 72.9541 25.7943 72.8545 25.4844C72.7604 25.1745 72.658 24.9504 72.5474 24.812C72.3813 24.6073 72.1711 24.4689 71.9165 24.397C71.6675 24.3195 71.3659 24.2808 71.0117 24.2808H69.6587V28.3398C69.6587 28.5225 69.6947 28.6857 69.7666 28.8296C69.8385 28.9735 69.9658 29.0897 70.1484 29.1782C70.2314 29.217 70.4113 29.264 70.688 29.3193C70.9647 29.3747 71.175 29.4051 71.3188 29.4106V30H66.2139V29.4106C66.3799 29.3996 66.6012 29.383 66.8779 29.3608C67.1546 29.3332 67.3345 29.3 67.4175 29.2612C67.5835 29.1893 67.7025 29.0841 67.7744 28.9458C67.8519 28.8019 67.8906 28.6304 67.8906 28.4312V19.9312C67.8906 19.7485 67.8602 19.5881 67.7993 19.4497C67.7384 19.3058 67.6112 19.1896 67.4175 19.1011C67.2681 19.0291 67.0661 18.9655 66.8115 18.9102C66.5625 18.8548 66.3633 18.8216 66.2139 18.8105V18.2212H75.4526V21.168ZM84.0439 29.8506C83.7839 29.9447 83.5542 30.0194 83.355 30.0747C83.1613 30.1356 82.9399 30.166 82.6909 30.166C82.2593 30.166 81.9134 30.0664 81.6533 29.8672C81.3988 29.6624 81.2355 29.3664 81.1636 28.979H81.1138C80.7541 29.3774 80.3667 29.6818 79.9517 29.8921C79.5422 30.1024 79.0469 30.2075 78.4658 30.2075C77.8516 30.2075 77.3452 30.0194 76.9468 29.6431C76.5539 29.2668 76.3574 28.7743 76.3574 28.1655C76.3574 27.8501 76.4017 27.5679 76.4902 27.3188C76.5788 27.0698 76.7116 26.8457 76.8887 26.6465C77.027 26.4805 77.2096 26.3338 77.4365 26.2065C77.6634 26.0737 77.8765 25.9686 78.0757 25.8911C78.3247 25.797 78.8283 25.6227 79.5864 25.3682C80.3501 25.1136 80.8647 24.9144 81.1304 24.7705V23.9487C81.1304 23.8768 81.1138 23.7384 81.0806 23.5337C81.0529 23.3289 80.9893 23.1353 80.8896 22.9526C80.779 22.7479 80.6213 22.5708 80.4165 22.4214C80.2173 22.2664 79.9323 22.189 79.5615 22.189C79.307 22.189 79.069 22.2332 78.8477 22.3218C78.6318 22.4048 78.4797 22.4933 78.3911 22.5874C78.3911 22.6981 78.416 22.8613 78.4658 23.0771C78.5212 23.293 78.5488 23.4922 78.5488 23.6748C78.5488 23.8685 78.4603 24.0456 78.2832 24.2061C78.1117 24.3665 77.8709 24.4468 77.561 24.4468C77.2843 24.4468 77.0796 24.3499 76.9468 24.1562C76.8195 23.957 76.7559 23.7357 76.7559 23.4922C76.7559 23.2376 76.8444 22.9941 77.0215 22.7617C77.2041 22.5293 77.4393 22.3218 77.7271 22.1392C77.9761 21.9842 78.2777 21.8542 78.6318 21.749C78.986 21.6383 79.3319 21.583 79.6694 21.583C80.1343 21.583 80.5382 21.6162 80.8813 21.6826C81.23 21.7435 81.5454 21.8791 81.8276 22.0894C82.1099 22.2941 82.3229 22.5736 82.4668 22.9277C82.6162 23.2764 82.6909 23.7274 82.6909 24.2808C82.6909 25.0721 82.6826 25.7749 82.666 26.3892C82.6494 26.9979 82.6411 27.6647 82.6411 28.3896C82.6411 28.6055 82.6771 28.777 82.749 28.9043C82.8265 29.0316 82.9427 29.1395 83.0977 29.228C83.1807 29.2778 83.3107 29.3055 83.4878 29.311C83.6704 29.3166 83.8558 29.3193 84.0439 29.3193V29.8506ZM81.147 25.4678C80.6766 25.6061 80.2643 25.7417 79.9102 25.8745C79.556 26.0073 79.2267 26.1733 78.9224 26.3726C78.6457 26.5607 78.4271 26.7848 78.2666 27.0449C78.1061 27.2995 78.0259 27.6038 78.0259 27.958C78.0259 28.4173 78.1449 28.7549 78.3828 28.9707C78.6263 29.1865 78.9334 29.2944 79.3042 29.2944C79.6971 29.2944 80.043 29.2004 80.3418 29.0122C80.6406 28.8185 80.8924 28.5916 81.0972 28.3315L81.147 25.4678ZM88.6426 30.2158C87.4583 30.2158 86.5314 29.8229 85.8618 29.0371C85.1922 28.2513 84.8574 27.1971 84.8574 25.8745C84.8574 25.299 84.946 24.7622 85.123 24.2642C85.3057 23.7606 85.5685 23.304 85.9116 22.8945C86.2381 22.5016 86.6476 22.1862 87.1401 21.9482C87.6326 21.7048 88.1694 21.583 88.7505 21.583C89.5529 21.583 90.2059 21.7767 90.7095 22.1641C91.2131 22.5459 91.4648 23.0688 91.4648 23.7329C91.4648 24.0096 91.3984 24.2559 91.2656 24.4717C91.1328 24.682 90.9142 24.7871 90.6099 24.7871C90.2834 24.7871 90.0288 24.7041 89.8462 24.5381C89.6691 24.3721 89.5806 24.1867 89.5806 23.9819C89.5806 23.7329 89.6138 23.4784 89.6802 23.2183C89.7466 22.9526 89.7853 22.759 89.7964 22.6372C89.6968 22.4657 89.5474 22.3522 89.3481 22.2969C89.1545 22.236 88.9442 22.2056 88.7173 22.2056C88.4517 22.2056 88.1971 22.2637 87.9536 22.3799C87.7157 22.4906 87.4832 22.6981 87.2563 23.0024C87.0516 23.2791 86.8856 23.6527 86.7583 24.123C86.631 24.5934 86.5674 25.1551 86.5674 25.8081C86.5674 26.8374 86.7943 27.6785 87.248 28.3315C87.7074 28.979 88.3078 29.3027 89.0493 29.3027C89.5861 29.3027 90.0343 29.1727 90.394 28.9126C90.7593 28.6525 91.0968 28.2624 91.4067 27.7422L91.938 28.0908C91.5728 28.7438 91.0913 29.2612 90.4937 29.6431C89.896 30.0249 89.279 30.2158 88.6426 30.2158ZM99.8486 28.0742C99.5055 28.7272 99.0462 29.2474 98.4707 29.6348C97.8952 30.0221 97.2339 30.2158 96.4868 30.2158C95.8283 30.2158 95.25 30.0996 94.752 29.8672C94.2594 29.6348 93.8527 29.3193 93.5317 28.9209C93.2108 28.5225 92.9701 28.0576 92.8096 27.5264C92.6546 26.9951 92.5771 26.4334 92.5771 25.8413C92.5771 25.3101 92.6602 24.7899 92.8262 24.2808C92.9977 23.7661 93.2467 23.304 93.5732 22.8945C93.8887 22.5016 94.2788 22.1862 94.7437 21.9482C95.214 21.7048 95.7397 21.583 96.3208 21.583C96.9185 21.583 97.4303 21.6771 97.8564 21.8652C98.2826 22.0534 98.6284 22.3107 98.894 22.6372C99.1486 22.9471 99.3368 23.3123 99.4585 23.7329C99.5858 24.1535 99.6494 24.61 99.6494 25.1025V25.6504H94.229C94.229 26.1872 94.2788 26.6742 94.3784 27.1113C94.4836 27.5485 94.6468 27.9331 94.8682 28.2651C95.084 28.5861 95.3662 28.8407 95.7148 29.0288C96.0635 29.2114 96.4785 29.3027 96.96 29.3027C97.4525 29.3027 97.8758 29.1893 98.23 28.9624C98.5897 28.73 98.9355 28.3149 99.2676 27.7173L99.8486 28.0742ZM98.0142 24.9531C98.0142 24.6432 97.9865 24.3112 97.9312 23.957C97.8813 23.6029 97.7983 23.3068 97.6821 23.0688C97.5549 22.8143 97.3805 22.6068 97.1592 22.4463C96.9378 22.2858 96.6528 22.2056 96.3042 22.2056C95.7231 22.2056 95.2389 22.4491 94.8516 22.936C94.4697 23.4175 94.2622 24.0898 94.229 24.9531H98.0142ZM109.104 25.8994C109.104 27.1279 108.717 28.16 107.942 28.9956C107.167 29.8312 106.268 30.249 105.244 30.249C104.796 30.249 104.353 30.1799 103.916 30.0415C103.484 29.9032 103.078 29.7178 102.696 29.4854L102.082 30.4399L101.567 30.3237C101.595 29.9142 101.614 29.4217 101.625 28.8462C101.636 28.2707 101.642 27.7145 101.642 27.1777V19.0762C101.642 18.888 101.597 18.6999 101.509 18.5117C101.426 18.3236 101.318 18.188 101.185 18.105C101.08 18.033 100.903 17.9805 100.654 17.9473C100.41 17.9085 100.214 17.8836 100.064 17.8726V17.3413L103.069 17.1504L103.186 17.2749V22.6704L103.244 22.687C103.587 22.3218 103.96 22.0479 104.364 21.8652C104.774 21.6826 105.175 21.5913 105.568 21.5913C106.575 21.5913 107.416 21.9897 108.091 22.7866C108.766 23.5835 109.104 24.6211 109.104 25.8994ZM107.369 25.9575C107.369 25.548 107.325 25.1302 107.236 24.7041C107.148 24.278 107.009 23.9072 106.821 23.5918C106.633 23.2708 106.387 23.0107 106.083 22.8115C105.778 22.6123 105.413 22.5127 104.987 22.5127C104.599 22.5127 104.259 22.5902 103.966 22.7451C103.678 22.8945 103.418 23.0993 103.186 23.3594V28.124C103.219 28.2568 103.282 28.4118 103.376 28.5889C103.476 28.766 103.609 28.9347 103.775 29.0952C103.941 29.2502 104.129 29.3774 104.339 29.4771C104.55 29.5711 104.807 29.6182 105.111 29.6182C105.786 29.6182 106.332 29.2917 106.747 28.6387C107.162 27.9857 107.369 27.092 107.369 25.9575ZM118.301 25.8247C118.301 26.4002 118.21 26.9674 118.027 27.5264C117.845 28.0798 117.585 28.5501 117.247 28.9375C116.865 29.3802 116.423 29.7095 115.919 29.9253C115.415 30.1411 114.851 30.249 114.226 30.249C113.705 30.249 113.21 30.1522 112.74 29.9585C112.269 29.7593 111.852 29.4715 111.486 29.0952C111.127 28.7244 110.839 28.2734 110.623 27.7422C110.413 27.2054 110.308 26.605 110.308 25.9409C110.308 24.6626 110.678 23.6167 111.42 22.8032C112.167 21.9897 113.144 21.583 114.35 21.583C115.496 21.583 116.439 21.9704 117.181 22.7451C117.928 23.5143 118.301 24.5409 118.301 25.8247ZM116.583 25.8413C116.583 25.4263 116.542 24.9891 116.458 24.5298C116.375 24.0649 116.251 23.672 116.085 23.3511C115.908 23.008 115.675 22.734 115.388 22.5293C115.1 22.319 114.749 22.2139 114.333 22.2139C113.907 22.2139 113.542 22.319 113.238 22.5293C112.939 22.7396 112.695 23.0273 112.507 23.3926C112.33 23.7301 112.206 24.1147 112.134 24.5464C112.062 24.978 112.026 25.3958 112.026 25.7998C112.026 26.3311 112.067 26.8236 112.15 27.2773C112.239 27.7256 112.377 28.1268 112.565 28.481C112.754 28.8351 112.989 29.1146 113.271 29.3193C113.559 29.5186 113.913 29.6182 114.333 29.6182C115.025 29.6182 115.573 29.2834 115.977 28.6138C116.381 27.9442 116.583 27.02 116.583 25.8413ZM127.465 25.8247C127.465 26.4002 127.374 26.9674 127.191 27.5264C127.009 28.0798 126.749 28.5501 126.411 28.9375C126.029 29.3802 125.587 29.7095 125.083 29.9253C124.579 30.1411 124.015 30.249 123.39 30.249C122.869 30.249 122.374 30.1522 121.904 29.9585C121.433 29.7593 121.016 29.4715 120.65 29.0952C120.291 28.7244 120.003 28.2734 119.787 27.7422C119.577 27.2054 119.472 26.605 119.472 25.9409C119.472 24.6626 119.842 23.6167 120.584 22.8032C121.331 21.9897 122.308 21.583 123.514 21.583C124.66 21.583 125.603 21.9704 126.345 22.7451C127.092 23.5143 127.465 24.5409 127.465 25.8247ZM125.747 25.8413C125.747 25.4263 125.706 24.9891 125.623 24.5298C125.54 24.0649 125.415 23.672 125.249 23.3511C125.072 23.008 124.84 22.734 124.552 22.5293C124.264 22.319 123.913 22.2139 123.498 22.2139C123.071 22.2139 122.706 22.319 122.402 22.5293C122.103 22.7396 121.86 23.0273 121.671 23.3926C121.494 23.7301 121.37 24.1147 121.298 24.5464C121.226 24.978 121.19 25.3958 121.19 25.7998C121.19 26.3311 121.231 26.8236 121.314 27.2773C121.403 27.7256 121.541 28.1268 121.729 28.481C121.918 28.8351 122.153 29.1146 122.435 29.3193C122.723 29.5186 123.077 29.6182 123.498 29.6182C124.189 29.6182 124.737 29.2834 125.141 28.6138C125.545 27.9442 125.747 27.02 125.747 25.8413ZM137.327 30H134.853C134.421 29.3747 133.959 28.7051 133.467 27.9912C132.974 27.2773 132.462 26.5828 131.931 25.9077L131.25 26.5469V28.4893C131.25 28.6885 131.286 28.8545 131.358 28.9873C131.43 29.1146 131.547 29.2087 131.707 29.2695C131.84 29.3249 131.967 29.3664 132.089 29.394C132.211 29.4217 132.352 29.4411 132.512 29.4521V30H128.495V29.4521C128.622 29.4411 128.755 29.43 128.893 29.4189C129.031 29.4023 129.148 29.3802 129.242 29.3525C129.397 29.3027 129.513 29.217 129.59 29.0952C129.668 28.9679 129.707 28.8047 129.707 28.6055V19.0928C129.707 18.888 129.662 18.6971 129.574 18.52C129.491 18.3374 129.38 18.1991 129.242 18.105C129.125 18.0164 128.943 17.9583 128.694 17.9307C128.45 17.903 128.254 17.8836 128.104 17.8726V17.3413L131.134 17.1504L131.25 17.2749V25.9326C131.682 25.501 132.147 25.0389 132.645 24.5464C133.149 24.0483 133.572 23.6056 133.915 23.2183C133.959 23.1685 134.006 23.1048 134.056 23.0273C134.111 22.9443 134.139 22.8779 134.139 22.8281C134.139 22.6787 134.017 22.568 133.774 22.4961C133.536 22.4242 133.306 22.3743 133.085 22.3467V21.8154H136.688V22.3301C136.223 22.4684 135.81 22.6427 135.451 22.853C135.097 23.0578 134.825 23.2432 134.637 23.4092C134.504 23.5199 134.316 23.6997 134.073 23.9487C133.829 24.1978 133.489 24.5243 133.052 24.9282C133.506 25.4871 134.015 26.1567 134.579 26.937C135.149 27.7173 135.564 28.2817 135.824 28.6304C136.068 28.9569 136.286 29.1699 136.48 29.2695C136.674 29.3691 136.956 29.43 137.327 29.4521V30Z" fill="#4A321F"/>
</svg>
