<svg width="358" height="286" viewBox="0 0 358 286" fill="none" xmlns="http://www.w3.org/2000/svg">
<path fill-rule="evenodd" clip-rule="evenodd" d="M258.215 58.3345C285.922 84.6408 293.661 123.872 291.627 162.015C289.677 198.564 278.789 237.438 247.638 256.646C218.66 274.514 183.905 257.035 150.86 248.813C117.417 240.492 77.431 240.134 60.5373 210.095C42.5913 178.186 55.3222 139.446 70.6644 106.218C87.0844 70.6562 108.445 33.8225 146.401 24.1318C186.126 13.9897 228.475 30.0986 258.215 58.3345Z" fill="#F7E6D8"/>
<g clip-path="url(#clip0_405_3642)">
<path d="M196.1 44.7572C197.496 44.4528 198.925 44.9916 200.24 45.5518C225.404 56.2735 245.038 79.1773 251.788 105.684C258.538 132.191 252.251 161.696 235.28 183.147C218.309 204.599 191.043 217.507 163.695 217.038C163.139 220.215 162.583 223.391 162.027 226.568C162.026 223.875 161.983 221.026 160.571 218.734C159.158 216.443 155.849 215.1 153.685 216.702C150.73 220.232 153.014 226.628 157.537 227.487C156.652 229.562 153.241 228.916 152.094 226.974C150.948 225.031 151.208 222.613 151.031 220.364C150.854 218.116 149.817 215.53 147.605 215.089C141.038 213.779 134.598 211.839 128.4 209.304C124.389 207.664 119.766 204.441 120.706 200.211C121.401 197.087 125.098 195.413 128.271 195.834C131.444 196.254 134.181 198.189 136.775 200.065C138.127 195.391 139.48 190.716 140.833 186.041C136.575 186.239 135.38 180 131.792 177.699C115.379 167.169 104.437 148.557 103.219 129.094C102.001 109.631 110.536 89.7996 125.508 77.3048C140.48 64.8101 161.518 59.9612 180.449 64.6422C182.695 61.8791 186.894 60.9223 190.115 62.4395C193.127 60.9025 192.974 56.6392 192.595 53.2789C192.217 49.9187 192.796 45.4774 196.1 44.7572ZM142.979 201.557C141.74 200.183 142.956 200.995 142.956 200.995L142.979 201.711V202.039C142.979 202.039 139.974 200.876 138.53 200.404C163.219 208.744 191.95 203.892 212.531 187.908C233.112 171.924 244.925 145.288 242.956 119.304C240.987 93.3191 225.296 68.7672 202.541 56.0666C201.999 55.7637 201.391 55.4571 200.783 55.589C200.003 55.7583 199.56 56.5624 199.217 57.2834C198.075 59.6859 196.933 62.0885 195.791 64.491C198.482 66.071 199.919 69.5221 199.146 72.5451C214.544 82.3045 225.267 99.1184 227.621 117.196C229.976 135.274 223.917 154.274 211.532 167.651C199.147 181.029 180.67 188.532 162.465 187.576C158.198 187.351 153.602 186.761 149.926 188.937C145.675 191.454 144.148 196.757 142.979 201.557Z" fill="white"/>
<path d="M136.749 89.4228C136.402 89.4275 136.253 89.8565 136.197 90.1983C135.986 91.4993 135.775 92.8002 135.563 94.1011C137.19 94.0679 139.023 93.9419 140.081 92.7065C138.624 92.461 137.535 90.8865 137.819 89.4366C138.337 90.237 139.037 90.9187 139.852 91.4152C140.257 91.6624 140.725 91.9041 140.884 92.3517C141.146 93.0918 140.409 93.7761 139.766 94.2268C139.123 94.6775 138.404 95.3958 138.708 96.12C138.113 95.4343 137.242 94.9951 136.338 94.9245C135.82 94.884 135.247 94.9444 134.833 94.6309C134.165 94.1255 134.393 93.0744 134.762 92.3227C135.131 91.571 135.58 90.6797 135.166 89.9519C134.856 89.4071 134.131 89.1382 133.968 88.5331C133.73 87.651 134.822 87.0356 135.708 86.8095C136.324 86.6522 136.972 86.5127 137.589 86.6659C138.206 86.819 138.775 87.3545 138.752 87.9899C138.458 88.8128 137.622 89.4109 136.749 89.4228ZM138.193 87.7383C137.309 87.2379 136.13 87.3176 135.321 87.9324C135.056 88.1342 134.814 88.4876 134.975 88.7797C136.127 88.8531 137.302 88.4729 138.193 87.7383Z" fill="black"/>
<path d="M200.643 135.867C200.254 135.713 199.909 135.45 199.656 135.116C200.596 134.706 201.366 133.923 201.76 132.977C202.011 132.375 202.91 132.364 203.45 132.73C203.99 133.095 204.327 133.692 204.818 134.121C205.31 134.549 206.128 134.764 206.579 134.293C207.104 133.743 208.123 134.186 208.39 134.898C208.657 135.61 208.422 136.401 208.187 137.124C208.051 137.544 207.901 137.984 207.575 138.281C207.248 138.578 206.684 138.663 206.381 138.341C205.196 137.076 202.828 137.281 201.877 138.731C200.927 138.158 200.406 136.951 200.643 135.867ZM202.359 133.916C201.51 134.774 201.222 136.141 201.653 137.269C201.752 137.528 202.084 137.805 202.256 137.586C203.045 136.582 204.483 136.143 205.698 136.535C205.928 136.609 206.132 136.305 206.067 136.073C206.001 135.84 205.784 135.689 205.581 135.557C204.713 134.993 203.845 134.429 202.977 133.865C202.876 133.8 202.765 133.731 202.645 133.743C202.532 133.754 202.439 133.835 202.359 133.916ZM207.033 138.007C207.387 137.193 207.627 136.329 207.744 135.449C207.77 135.255 207.674 134.962 207.493 135.037C206.419 135.534 206.16 137.208 207.033 138.007Z" fill="black"/>
<path d="M173.607 136.357C171.994 135.117 169.951 134.122 169.278 132.202C168.135 128.937 164.507 127.231 162.711 124.274C161.194 121.777 161.148 118.65 161.601 115.764C162.736 108.534 167.206 101.503 174.051 98.9148C177.318 97.6798 180.883 97.5076 184.376 97.5435C187.381 97.5744 190.488 97.7753 193.165 99.1409C195.842 100.507 197.992 103.317 197.71 106.31C197.597 107.514 197.108 108.669 197.085 109.878C197.024 113.191 200.269 115.476 203.139 117.133C205.907 118.731 208.674 120.329 211.442 121.927C212.87 122.752 213.066 124.697 213.096 126.346C213.178 130.856 213.26 135.365 213.342 139.875C213.358 140.776 213.373 141.691 213.141 142.562C212.889 143.501 212.363 144.34 211.844 145.163C206.671 153.364 201.058 161.97 192.329 166.192C190.418 167.117 188.404 167.804 186.394 168.489C184.517 169.129 182.64 169.769 180.762 170.409C179.375 170.881 177.946 171.36 176.483 171.277C175.02 171.194 173.497 170.412 172.983 169.04C172.685 168.243 172.757 167.359 172.881 166.518C173.306 163.653 174.303 160.874 175.798 158.393C177.883 154.931 179.136 150.894 178.894 146.859C178.651 142.825 176.811 138.82 173.607 136.357ZM167.181 126.797C171.068 130.412 174.521 134.492 177.444 138.922C178.451 140.448 179.404 142.036 179.941 143.784C180.982 147.173 180.363 150.87 179.16 154.204C177.957 157.539 176.193 160.643 174.857 163.926C174.118 165.745 173.66 168.178 175.213 169.379C176.49 170.367 178.324 169.854 179.841 169.3C182.117 168.468 184.392 167.637 186.667 166.805C188.555 166.115 190.449 165.423 192.241 164.513C200.433 160.356 205.679 152.184 210.53 144.382C210.969 143.676 211.414 142.958 211.642 142.158C211.879 141.326 211.871 140.447 211.86 139.582C211.815 135.768 211.77 131.953 211.725 128.138C211.709 126.796 211.681 125.399 211.074 124.202C209.991 122.067 207.466 121.205 205.294 120.199C202.036 118.689 199.12 116.443 196.829 113.678C196.238 112.965 195.672 112.185 195.491 111.277C195.167 109.663 196.111 108.077 196.252 106.437C196.481 103.752 194.455 101.279 192.011 100.142C189.567 99.0056 186.782 98.9226 184.087 98.9011C181.532 98.8808 178.944 98.9017 176.472 99.5471C169.11 101.469 164.072 108.809 162.991 116.341C162.685 118.478 162.662 120.751 163.617 122.686C164.424 124.323 165.845 125.554 167.181 126.797Z" fill="black"/>
<path d="M131.737 240.679C134.608 242.425 138.02 243.005 141.347 243.481C146.639 244.238 151.957 244.819 157.288 245.223C164.155 245.744 171.465 245.873 177.439 242.445C177.88 242.191 178.33 241.9 178.572 241.452C179.305 240.091 177.632 238.617 176.11 238.345C174.589 238.073 172.83 238.229 171.718 237.156C173.957 236.043 176.776 236.196 178.882 237.545C180.988 238.893 182.306 241.389 182.233 243.888C182.173 245.938 181.252 247.911 181.347 249.959C181.464 252.457 178.917 254.191 176.592 255.114C169.204 258.048 161.031 258.123 153.082 258.007C146.04 257.903 138.725 257.613 132.467 254.382C130.893 253.569 129.355 252.522 128.485 250.979C127.704 249.594 127.54 247.957 127.393 246.374C127.097 243.19 126.91 239.63 128.961 237.177C130.916 234.838 134.257 234.306 137.298 234.086C138.766 233.98 139.282 232.031 139.014 230.583C138.746 229.136 138.107 227.593 138.737 226.263C139.995 223.606 144.365 224.912 146.611 223.016C147.357 222.387 148.555 223.507 148.265 224.439C147.975 225.37 146.881 225.806 145.905 225.824C144.93 225.843 143.958 225.574 142.987 225.663C142.015 225.752 140.967 226.373 140.885 227.345C149.84 230.939 159.951 231.581 169.289 229.149C167.682 227.181 165.107 226.045 162.571 226.182C162.612 225.556 163.312 225.202 163.929 225.088C166.724 224.571 169.602 226.527 170.673 229.16C171.743 231.794 171.241 234.872 169.906 237.382C168.693 237.004 168.789 235.288 168.985 234.032C169.181 232.776 168.664 230.962 167.416 231.204C158.887 232.856 149.924 232.215 141.717 229.364C141.091 229.147 140.692 230.028 140.616 230.686C140.33 233.149 140.184 236.017 142.004 237.7C142.898 238.526 144.113 238.894 145.293 239.192C151.707 240.811 158.452 241.103 164.981 240.045C165.895 239.897 167.059 239.834 167.506 240.646C162.558 242.889 156.858 242.378 151.454 241.823C148.9 241.561 146.295 241.285 143.953 240.233C141.67 239.207 139.737 237.485 137.403 236.581C135.068 235.677 131.94 235.912 130.666 238.068C130.526 238.306 130.411 238.566 130.392 238.841C130.334 239.64 131.053 240.263 131.737 240.679ZM179.811 250.536C180.851 248.211 179.893 245.544 179.586 243.016C172.492 247.861 163.162 247.442 154.618 246.546C149.664 246.027 144.721 245.41 139.791 244.695C136.595 244.232 133.237 243.657 130.738 241.61C130.067 241.061 129.321 242.212 129.21 243.072C128.887 245.573 128.607 248.293 129.906 250.455C131.33 252.825 134.222 253.811 136.907 254.473C148.722 257.386 161.228 257.461 173.077 254.687C175.742 254.064 178.693 253.035 179.811 250.536Z" fill="black"/>
<path d="M194.413 44.2799C195.809 43.9755 197.238 44.5143 198.553 45.0745C223.717 55.7962 243.351 78.7 250.101 105.207C256.851 131.713 250.564 161.218 233.593 182.67C216.622 204.121 189.356 217.03 162.008 216.561C161.452 219.737 160.896 222.914 160.34 226.09C160.339 223.398 160.296 220.549 158.884 218.257C157.471 215.965 154.162 214.623 151.998 216.225C149.043 219.755 151.327 226.151 155.85 227.01C154.965 229.085 151.554 228.439 150.407 226.496C149.261 224.554 149.521 222.136 149.344 219.887C149.167 217.638 148.13 215.053 145.918 214.612C139.351 213.302 132.911 211.362 126.713 208.827C122.702 207.187 118.079 203.964 119.019 199.734C119.714 196.609 123.411 194.936 126.584 195.356C129.757 195.777 132.494 197.712 135.088 199.588C136.44 194.913 137.793 190.239 139.146 185.564C134.888 185.761 133.693 179.523 130.105 177.222C113.692 166.692 102.75 148.079 101.532 128.617C100.314 109.154 108.849 89.3223 123.821 76.8275C138.792 64.3328 159.831 59.4839 178.762 64.1649C181.008 61.4018 185.207 60.445 188.428 61.9622C191.44 60.4252 191.287 56.1619 190.908 52.8017C190.53 49.4414 191.109 45.0001 194.413 44.2799V44.2799ZM220.798 146.095C228.178 126.703 224.708 103.571 211.964 87.1978C211.041 86.0116 209.998 84.8062 208.573 84.3298C205.352 83.2533 202.131 82.1769 198.911 81.1005C199.26 82.4587 198.174 83.8529 196.862 84.3495C195.55 84.8461 194.093 84.6778 192.702 84.5007C190.223 84.1852 187.665 83.8372 185.525 82.5485C183.385 81.2597 181.763 78.7646 182.281 76.3207C182.695 74.3681 180.302 73.1168 178.379 72.5809C173.36 71.1817 168.341 69.7826 163.321 68.3835C162.227 68.0785 161.057 67.724 160.358 66.8288C159.658 65.9336 159.796 64.3276 160.872 63.9636C152.461 64.1884 144.107 66.3489 136.641 70.2305C142.593 73.3154 148.658 76.4833 153.318 81.3031C156.972 85.0832 159.72 90.1503 159.276 95.3894C158.892 99.9288 156.124 104.034 152.519 106.819C148.913 109.603 144.531 111.205 140.113 112.315C133.594 113.954 125.697 114.212 121.211 109.205C119.907 107.749 117.575 108.127 115.684 108.624C112.493 109.463 109.302 110.302 106.111 111.141C105.368 111.336 104.469 111.716 104.444 112.483C104.367 114.812 106.093 117.075 108.358 117.618C110.624 118.16 113.188 116.924 114.174 114.814C114.768 113.542 116.559 113.343 117.872 113.841C119.184 114.339 120.27 115.315 121.576 115.831C123.645 116.648 126.074 116.238 128.075 117.21C131.413 118.83 131.982 123.376 131.345 127.032C130.164 133.816 126.317 140.1 120.812 144.238C117.199 146.954 117.826 152.582 119.644 156.72C121.462 160.857 124.166 165.017 123.534 169.492C121.055 164.309 118.956 158.944 117.259 153.454C116.323 150.426 115.787 146.496 118.369 144.657C123.854 140.749 127.923 134.898 129.678 128.396C130.73 124.499 130.207 119.177 126.344 118.006C124.847 117.552 123.191 117.889 121.704 117.402C120.459 116.995 119.461 116.052 118.266 115.516C117.07 114.98 115.387 115.026 114.756 116.174C112.606 120.086 106.008 120.247 103.671 116.443C100.958 135.82 108.297 156.331 122.688 169.587C137.079 182.843 158.122 188.477 177.211 184.185C196.3 179.893 212.906 165.794 220.238 147.653C218.2 146.745 217.047 144.494 216.749 142.284C216.451 140.073 216.848 137.838 217.068 135.618C217.512 131.155 217.234 126.621 216.248 122.245C215.983 121.068 215.464 119.698 214.283 119.454C210.737 118.722 207.372 117.129 204.56 114.849C202.423 113.118 200.63 109.686 202.709 107.886C203.678 107.047 202.303 105.666 201.802 104.486C200.745 101.996 203.982 99.9514 206.569 99.1621C209.603 98.2366 212.636 97.3112 215.67 96.3857C215.998 96.2858 216.344 96.1851 216.677 96.2663C217.644 96.5023 217.576 98.0637 216.762 98.6371C215.949 99.2105 214.863 99.1177 213.868 99.094C209.91 99 205.935 100.448 202.965 103.067C204.286 104.528 204.626 106.797 203.791 108.581C202.786 110.729 204.213 113.334 206.185 114.651C208.157 115.967 210.563 116.416 212.777 117.266C214.99 118.116 217.221 119.627 217.757 121.937C218.843 126.616 219.079 131.491 218.451 136.254C217.977 139.848 217.533 144.519 220.798 146.095ZM141.292 201.079C140.053 199.706 140.359 197.528 141.132 195.847C141.905 194.167 143.072 192.627 143.4 190.806C143.727 188.985 142.74 186.713 140.895 186.572C139.544 191.024 138.194 195.475 136.843 199.927C161.532 208.267 190.263 203.415 210.844 187.431C231.425 171.447 243.238 144.811 241.269 118.826C239.3 92.8418 223.609 68.2899 200.854 55.5893C200.312 55.2864 199.704 54.9798 199.096 55.1117C198.316 55.281 197.873 56.0851 197.53 56.8061C196.388 59.2086 195.246 61.6112 194.104 64.0137C196.795 65.5937 198.232 69.0448 197.459 72.0678C212.857 81.8272 223.58 98.6411 225.934 116.719C228.289 134.797 222.23 153.796 209.845 167.174C197.46 180.552 178.983 188.054 160.778 187.098C156.511 186.874 151.915 186.283 148.239 188.46C143.988 190.976 142.461 196.28 141.292 201.079H141.292ZM199.42 47.1801C198.016 46.5541 196.488 45.9524 194.98 46.2515C193.472 46.5505 192.133 48.1483 192.682 49.5841C219.117 60.3765 238.852 86.0916 242.438 114.419C246.024 142.747 233.32 172.568 210.408 189.608C187.496 206.647 155.28 210.232 129.183 198.645C126.648 197.52 123.188 196.468 121.515 198.68C120.486 200.042 120.831 202.078 121.869 203.433C122.907 204.788 124.48 205.611 126.021 206.345C153.861 219.613 188.737 216.708 213.999 199.018C239.26 181.328 253.916 149.548 250.968 118.849C248.021 88.1512 227.586 59.7399 199.42 47.1801ZM105.543 109.91C108.792 109.023 112.04 108.136 115.288 107.249C117.529 106.638 120.303 106.169 121.851 107.901C124.349 110.697 128.219 111.977 131.969 112.048C135.718 112.119 139.401 111.109 142.968 109.95C147.83 108.371 153.009 106.143 155.336 101.591C156.704 98.9161 158.108 96.0746 157.923 93.0759C157.751 90.3119 156.251 87.8308 154.793 85.4764C153.568 83.4981 152.312 81.4829 150.522 79.996C147.468 77.4591 143.154 76.703 140.363 73.879C138.75 72.2465 136.187 71.8487 133.949 72.3565C131.711 72.8644 129.733 74.1483 127.886 75.5109C117.298 83.3227 109.318 94.6081 105.482 107.194C105.207 108.095 104.978 109.157 105.543 109.91ZM197.749 80.5447C198.786 79.0542 201.127 79.5733 202.672 80.5276C204.217 81.4819 205.881 82.7738 207.639 82.3229C198.034 72.5799 185.166 66.1099 171.616 64.2104C168.109 63.7187 164.087 63.6878 161.566 66.1754C167.875 68.0678 174.184 69.9602 180.494 71.8526C181.324 72.1016 182.2 72.3796 182.768 73.0336C183.768 74.1835 183.411 75.9309 183.688 77.4289C184.089 79.5881 185.902 81.2687 187.93 82.1131C189.957 82.9574 192.195 83.1077 194.387 83.2474C195.149 83.296 195.998 83.3168 196.573 82.8151C197.221 82.2499 197.258 81.2506 197.749 80.5447ZM195.834 70.9818C196.423 69.6925 195.892 68.1099 194.913 67.0846C193.934 66.0594 192.591 65.4758 191.275 64.9481C188.967 64.0229 186.574 63.1785 184.089 63.1117C183.466 63.095 182.78 63.1523 182.333 63.5866C181.886 64.0208 181.928 64.9441 182.524 65.1245C187.175 66.5312 191.655 68.5027 195.834 70.9818ZM150.497 185.62C145.974 184.777 141.572 183.289 137.465 181.217C137.125 181.046 136.763 180.865 136.385 180.901C136.006 180.937 135.632 181.291 135.728 181.659C135.793 181.909 136.034 182.064 136.257 182.195C138.618 183.583 140.999 184.98 143.59 185.87C146.181 186.759 149.028 187.115 151.666 186.38C151.578 185.892 150.985 185.711 150.497 185.62ZM196.164 53.0072C195.809 52.4872 194.977 52.5248 194.484 52.9175C193.992 53.3102 193.755 53.9328 193.54 54.5245C192.64 56.9985 191.739 59.4725 190.839 61.9465C190.756 62.1738 190.672 62.4112 190.699 62.6515C190.777 63.3498 191.768 63.6028 192.369 63.2391C192.97 62.8754 193.255 62.1693 193.502 61.5115C194.367 59.2041 195.232 56.8967 196.097 54.5893C196.29 54.0743 196.474 53.4614 196.164 53.0072V53.0072Z" fill="black"/>
</g>
<defs>
<clipPath id="clip0_405_3642">
<rect width="213.845" height="213.845" fill="white" transform="translate(70.168 44.1919)"/>
</clipPath>
</defs>
</svg>
