<svg width="171" height="48" viewBox="0 0 171 48" fill="none" xmlns="http://www.w3.org/2000/svg">
<path d="M0.4 13.12C0.4 10.7216 0.400353 8.94846 0.522186 7.54916C0.643569 6.15502 0.883231 5.16966 1.34007 4.33867C2.03485 3.07487 3.07487 2.03485 4.33867 1.34007C5.16966 0.883231 6.15502 0.643569 7.54916 0.522186C8.94846 0.400353 10.7216 0.4 13.12 0.4H157.88C160.278 0.4 162.052 0.400353 163.451 0.522186C164.845 0.643569 165.83 0.883231 166.661 1.34007C167.925 2.03485 168.965 3.07487 169.66 4.33867C170.117 5.16966 170.356 6.15502 170.478 7.54916C170.6 8.94846 170.6 10.7216 170.6 13.12V34.88C170.6 37.2784 170.6 39.0515 170.478 40.4508C170.356 41.845 170.117 42.8303 169.66 43.6613C168.965 44.9251 167.925 45.9651 166.661 46.6599C165.83 47.1168 164.845 47.3564 163.451 47.4778C162.052 47.5996 160.278 47.6 157.88 47.6H13.12C10.7216 47.6 8.94846 47.5996 7.54916 47.4778C6.15502 47.3564 5.16966 47.1168 4.33867 46.6599C3.07487 45.9651 2.03485 44.9251 1.34007 43.6613C0.883231 42.8303 0.643569 41.845 0.522186 40.4508C0.400353 39.0515 0.4 37.2784 0.4 34.88V13.12Z" stroke="#A7A7A7" stroke-width="0.8"/>
<g clip-path="url(#clip0_368_1810)">
<path d="M66.3175 21.8372C66.4576 22.6426 66.5273 23.4587 66.526 24.2762C66.526 27.9272 65.221 31.0142 62.95 33.1037H62.953C60.967 34.9382 58.237 36.0002 55 36.0002C51.8174 36.0002 48.7652 34.7359 46.5147 32.4855C44.2643 30.2351 43 27.1828 43 24.0002C43 20.8176 44.2643 17.7654 46.5147 15.5149C48.7652 13.2645 51.8174 12.0002 55 12.0002C57.9786 11.9671 60.8548 13.086 63.028 15.1232L59.602 18.5492C58.3633 17.3691 56.7107 16.7227 55 16.7492C51.8695 16.7492 49.21 18.8612 48.262 21.7052C47.7602 23.1956 47.7602 24.8093 48.262 26.2997H48.2665C49.219 29.1392 51.874 31.2512 55.0045 31.2512C56.6215 31.2512 58.0105 30.8372 59.0875 30.1052H59.083C59.7085 29.6911 60.2435 29.1544 60.6558 28.5276C61.068 27.9009 61.3489 27.1971 61.4815 26.4587H55V21.8387L66.3175 21.8372Z" fill="#4A321F"/>
</g>
<path d="M87.2104 25.2935C87.0776 25.3101 86.8978 25.3377 86.6709 25.3765C86.4495 25.4097 86.2697 25.4595 86.1313 25.5259C85.9653 25.6089 85.8464 25.7279 85.7744 25.8828C85.708 26.0322 85.6748 26.2093 85.6748 26.4141V27.3271C85.6748 27.9912 85.6776 28.4395 85.6831 28.6719C85.6942 28.9043 85.7052 29.0952 85.7163 29.2446C84.9803 29.5767 84.2471 29.8312 83.5166 30.0083C82.7861 30.1854 82.0695 30.2739 81.3667 30.2739C80.6141 30.2739 79.8892 30.1328 79.1919 29.8506C78.4946 29.5684 77.8859 29.1672 77.3657 28.647C76.84 28.1213 76.4222 27.4821 76.1123 26.7295C75.8024 25.9769 75.6475 25.1357 75.6475 24.2061C75.6475 23.3096 75.7941 22.4795 76.0874 21.7158C76.3862 20.9466 76.8068 20.2798 77.3491 19.7153C77.8748 19.1619 78.5002 18.7331 79.2251 18.4287C79.9556 18.1188 80.7358 17.9639 81.5659 17.9639C82.23 17.9639 82.8083 18.0441 83.3008 18.2046C83.7933 18.3651 84.2277 18.5588 84.604 18.7856L84.9443 18.2212H85.6084L85.6831 22.3384H85.0024C84.8862 21.8846 84.7424 21.4391 84.5708 21.002C84.3993 20.5592 84.1779 20.1636 83.9067 19.8149C83.6356 19.4663 83.3035 19.1896 82.9106 18.9849C82.5233 18.7746 82.0584 18.6694 81.5161 18.6694C80.924 18.6694 80.3955 18.7912 79.9307 19.0347C79.4658 19.2726 79.0618 19.6296 78.7188 20.1055C78.3812 20.5648 78.1211 21.1375 77.9385 21.8237C77.7559 22.5099 77.6646 23.2764 77.6646 24.123C77.6646 24.8701 77.7531 25.5757 77.9302 26.2397C78.1128 26.8983 78.3757 27.4683 78.7188 27.9497C79.0618 28.4422 79.4907 28.8296 80.0054 29.1118C80.52 29.394 81.1038 29.5352 81.7568 29.5352C82.2438 29.5352 82.6865 29.4604 83.085 29.311C83.4889 29.1616 83.7739 29.0039 83.9399 28.8379C83.9842 28.5501 84.0063 28.2596 84.0063 27.9663C84.0119 27.673 84.0146 27.424 84.0146 27.2192V26.5718C84.0146 26.3394 83.9814 26.1346 83.915 25.9575C83.8542 25.7749 83.7241 25.6421 83.5249 25.5591C83.3423 25.4761 83.0933 25.4152 82.7778 25.3765C82.4679 25.3322 82.2244 25.3045 82.0474 25.2935V24.6875H87.2104V25.2935ZM95.9097 25.8247C95.9097 26.4002 95.8184 26.9674 95.6357 27.5264C95.4531 28.0798 95.193 28.5501 94.8555 28.9375C94.4736 29.3802 94.0309 29.7095 93.5273 29.9253C93.0238 30.1411 92.4593 30.249 91.834 30.249C91.3138 30.249 90.8185 30.1522 90.3481 29.9585C89.8778 29.7593 89.46 29.4715 89.0947 29.0952C88.735 28.7244 88.4473 28.2734 88.2314 27.7422C88.0212 27.2054 87.916 26.605 87.916 25.9409C87.916 24.6626 88.2868 23.6167 89.0283 22.8032C89.7754 21.9897 90.7521 21.583 91.9585 21.583C93.104 21.583 94.0475 21.9704 94.7891 22.7451C95.5361 23.5143 95.9097 24.5409 95.9097 25.8247ZM94.1914 25.8413C94.1914 25.4263 94.1499 24.9891 94.0669 24.5298C93.9839 24.0649 93.8594 23.672 93.6934 23.3511C93.5163 23.008 93.2839 22.734 92.9961 22.5293C92.7083 22.319 92.3569 22.2139 91.9419 22.2139C91.5158 22.2139 91.1506 22.319 90.8462 22.5293C90.5474 22.7396 90.3039 23.0273 90.1157 23.3926C89.9386 23.7301 89.8141 24.1147 89.7422 24.5464C89.6702 24.978 89.6343 25.3958 89.6343 25.7998C89.6343 26.3311 89.6758 26.8236 89.7588 27.2773C89.8473 27.7256 89.9857 28.1268 90.1738 28.481C90.362 28.8351 90.5972 29.1146 90.8794 29.3193C91.1672 29.5186 91.5213 29.6182 91.9419 29.6182C92.6336 29.6182 93.1815 29.2834 93.5854 28.6138C93.9894 27.9442 94.1914 27.02 94.1914 25.8413ZM105.074 25.8247C105.074 26.4002 104.982 26.9674 104.8 27.5264C104.617 28.0798 104.357 28.5501 104.02 28.9375C103.638 29.3802 103.195 29.7095 102.691 29.9253C102.188 30.1411 101.623 30.249 100.998 30.249C100.478 30.249 99.9826 30.1522 99.5122 29.9585C99.0418 29.7593 98.624 29.4715 98.2588 29.0952C97.8991 28.7244 97.6113 28.2734 97.3955 27.7422C97.1852 27.2054 97.0801 26.605 97.0801 25.9409C97.0801 24.6626 97.4508 23.6167 98.1924 22.8032C98.9395 21.9897 99.9162 21.583 101.123 21.583C102.268 21.583 103.212 21.9704 103.953 22.7451C104.7 23.5143 105.074 24.5409 105.074 25.8247ZM103.355 25.8413C103.355 25.4263 103.314 24.9891 103.231 24.5298C103.148 24.0649 103.023 23.672 102.857 23.3511C102.68 23.008 102.448 22.734 102.16 22.5293C101.872 22.319 101.521 22.2139 101.106 22.2139C100.68 22.2139 100.315 22.319 100.01 22.5293C99.7114 22.7396 99.4679 23.0273 99.2798 23.3926C99.1027 23.7301 98.9782 24.1147 98.9062 24.5464C98.8343 24.978 98.7983 25.3958 98.7983 25.7998C98.7983 26.3311 98.8398 26.8236 98.9229 27.2773C99.0114 27.7256 99.1497 28.1268 99.3379 28.481C99.526 28.8351 99.7612 29.1146 100.043 29.3193C100.331 29.5186 100.685 29.6182 101.106 29.6182C101.798 29.6182 102.346 29.2834 102.75 28.6138C103.153 27.9442 103.355 27.02 103.355 25.8413ZM113.275 29.1533C113.496 29.3636 113.671 29.6016 113.798 29.8672C113.925 30.1328 113.989 30.4621 113.989 30.855C113.989 31.2479 113.903 31.6159 113.731 31.959C113.56 32.3076 113.3 32.6092 112.951 32.8638C112.58 33.1239 112.138 33.3258 111.623 33.4697C111.108 33.6136 110.472 33.6855 109.714 33.6855C108.474 33.6855 107.547 33.5029 106.933 33.1377C106.319 32.778 106.012 32.2495 106.012 31.5522C106.012 30.9878 106.233 30.5423 106.676 30.2158C107.118 29.8893 107.683 29.7122 108.369 29.6846V29.5684C108.203 29.5186 108.032 29.4577 107.854 29.3857C107.677 29.3083 107.525 29.2197 107.398 29.1201C107.254 29.0039 107.138 28.8683 107.049 28.7134C106.961 28.5529 106.917 28.3564 106.917 28.124C106.917 27.8307 107.019 27.5623 107.224 27.3188C107.434 27.0698 107.749 26.8568 108.17 26.6797V26.5552C107.639 26.3062 107.226 25.988 106.933 25.6006C106.64 25.2077 106.493 24.7539 106.493 24.2393C106.493 23.4645 106.781 22.8281 107.356 22.3301C107.938 21.832 108.679 21.583 109.581 21.583C109.83 21.583 110.076 21.6079 110.32 21.6577C110.569 21.7075 110.821 21.7712 111.075 21.8486H113.931V22.6455H112.005V22.6953C112.21 22.9333 112.362 23.1961 112.461 23.4839C112.561 23.7716 112.611 24.0539 112.611 24.3306C112.611 25.05 112.318 25.6587 111.731 26.1567C111.15 26.6548 110.472 26.9038 109.697 26.9038H108.693C108.566 26.9481 108.433 27.0283 108.294 27.1445C108.156 27.2607 108.087 27.4185 108.087 27.6177C108.087 27.8224 108.145 27.9801 108.261 28.0908C108.377 28.196 108.519 28.2679 108.685 28.3066C108.845 28.3509 109.03 28.3786 109.241 28.3896C109.457 28.4007 109.678 28.409 109.905 28.4146C110.148 28.4201 110.48 28.4367 110.901 28.4644C111.327 28.492 111.629 28.5086 111.806 28.5142C112.06 28.5252 112.315 28.5861 112.569 28.6968C112.829 28.8075 113.065 28.9596 113.275 29.1533ZM111.034 24.2974C111.034 23.6499 110.901 23.1353 110.635 22.7534C110.375 22.366 110.007 22.1724 109.531 22.1724C109.271 22.1724 109.047 22.2277 108.859 22.3384C108.676 22.4435 108.527 22.5957 108.411 22.7949C108.3 22.9775 108.22 23.1989 108.17 23.459C108.126 23.7135 108.104 23.9764 108.104 24.2476C108.104 24.8618 108.236 25.3626 108.502 25.75C108.773 26.1374 109.122 26.3311 109.548 26.3311C110.024 26.3311 110.389 26.1401 110.644 25.7583C110.904 25.3709 111.034 24.884 111.034 24.2974ZM112.627 31.1621C112.627 30.8522 112.556 30.5977 112.412 30.3984C112.268 30.1992 112.049 30.0636 111.756 29.9917C111.601 29.9696 111.283 29.9447 110.801 29.917C110.32 29.8893 109.761 29.8755 109.125 29.8755C108.527 29.9917 108.101 30.1854 107.846 30.4565C107.597 30.7332 107.473 31.0874 107.473 31.519C107.473 31.7127 107.514 31.8981 107.597 32.0752C107.68 32.2523 107.824 32.4155 108.029 32.5649C108.222 32.7088 108.483 32.825 108.809 32.9136C109.136 33.0076 109.534 33.0547 110.004 33.0547C110.818 33.0547 111.457 32.897 111.922 32.5815C112.392 32.2716 112.627 31.7985 112.627 31.1621ZM118.762 30H114.769V29.4521C114.896 29.4411 115.032 29.43 115.176 29.4189C115.32 29.4023 115.439 29.3802 115.533 29.3525C115.688 29.3027 115.804 29.217 115.881 29.0952C115.959 28.9679 115.998 28.8047 115.998 28.6055V19.126C115.998 18.9268 115.953 18.7414 115.865 18.5698C115.782 18.3927 115.671 18.2544 115.533 18.1548C115.433 18.0884 115.25 18.0275 114.985 17.9722C114.719 17.9168 114.506 17.8836 114.346 17.8726V17.3413L117.425 17.1504L117.542 17.2749V28.5059C117.542 28.6995 117.577 28.86 117.649 28.9873C117.721 29.109 117.838 29.2031 117.998 29.2695C118.12 29.3249 118.239 29.3664 118.355 29.394C118.477 29.4217 118.612 29.4411 118.762 29.4521V30ZM127.062 28.0742C126.719 28.7272 126.26 29.2474 125.685 29.6348C125.109 30.0221 124.448 30.2158 123.701 30.2158C123.042 30.2158 122.464 30.0996 121.966 29.8672C121.473 29.6348 121.067 29.3193 120.746 28.9209C120.425 28.5225 120.184 28.0576 120.023 27.5264C119.868 26.9951 119.791 26.4334 119.791 25.8413C119.791 25.3101 119.874 24.7899 120.04 24.2808C120.212 23.7661 120.461 23.304 120.787 22.8945C121.103 22.5016 121.493 22.1862 121.958 21.9482C122.428 21.7048 122.954 21.583 123.535 21.583C124.132 21.583 124.644 21.6771 125.07 21.8652C125.496 22.0534 125.842 22.3107 126.108 22.6372C126.362 22.9471 126.551 23.3123 126.672 23.7329C126.8 24.1535 126.863 24.61 126.863 25.1025V25.6504H121.443C121.443 26.1872 121.493 26.6742 121.592 27.1113C121.697 27.5485 121.861 27.9331 122.082 28.2651C122.298 28.5861 122.58 28.8407 122.929 29.0288C123.277 29.2114 123.692 29.3027 124.174 29.3027C124.666 29.3027 125.09 29.1893 125.444 28.9624C125.804 28.73 126.149 28.3149 126.481 27.7173L127.062 28.0742ZM125.228 24.9531C125.228 24.6432 125.2 24.3112 125.145 23.957C125.095 23.6029 125.012 23.3068 124.896 23.0688C124.769 22.8143 124.594 22.6068 124.373 22.4463C124.152 22.2858 123.867 22.2056 123.518 22.2056C122.937 22.2056 122.453 22.4491 122.065 22.936C121.684 23.4175 121.476 24.0898 121.443 24.9531H125.228Z" fill="#4A321F"/>
<defs>
<clipPath id="clip0_368_1810">
<rect width="24" height="24" fill="white" transform="translate(43 12)"/>
</clipPath>
</defs>
</svg>
