<svg width="24" height="24" viewBox="0 0 24 24" fill="none" xmlns="http://www.w3.org/2000/svg">
<g clip-path="url(#clip0_665_3436)">
<path d="M12.0002 1.33301C9.8905 1.33301 7.82821 1.9586 6.07409 3.13067C4.31996 4.30273 2.95279 5.96864 2.14545 7.91772C1.33812 9.8668 1.12688 12.0115 1.53846 14.0806C1.95003 16.1498 2.96594 18.0504 4.4577 19.5421C5.94946 21.0339 7.85007 22.0498 9.9192 22.4614C11.9883 22.873 14.133 22.6617 16.0821 21.8544C18.0312 21.0471 19.6971 19.6799 20.8692 17.9258C22.0412 16.1716 22.6668 14.1093 22.6668 11.9997C22.6668 9.1707 21.543 6.45759 19.5426 4.4572C17.5423 2.45681 14.8291 1.33301 12.0002 1.33301ZM12.0002 21.333C10.1542 21.333 8.3497 20.7856 6.81485 19.7601C5.27999 18.7345 4.08371 17.2768 3.37729 15.5714C2.67087 13.8659 2.48604 11.9893 2.84617 10.1788C3.2063 8.36834 4.09521 6.7053 5.4005 5.40001C6.70579 4.09472 8.36884 3.20581 10.1793 2.84568C11.9898 2.48555 13.8664 2.67038 15.5719 3.3768C17.2773 4.08322 18.735 5.27949 19.7606 6.81435C20.7861 8.34921 21.3335 10.1537 21.3335 11.9997C21.3335 14.475 20.3502 16.849 18.5998 18.5993C16.8495 20.3497 14.4755 21.333 12.0002 21.333Z" fill="#4A321F"/>
<path d="M12.1932 5.94696C11.4707 5.93502 10.7545 6.08234 10.0955 6.37846C9.43641 6.67458 8.85066 7.11222 8.37984 7.66029C8.31443 7.72091 8.26184 7.79404 8.2252 7.87534C8.18856 7.95664 8.1686 8.04447 8.1665 8.13363C8.16646 8.21588 8.18296 8.29731 8.21503 8.37305C8.24709 8.4488 8.29407 8.51732 8.35316 8.57455C8.41225 8.63177 8.48224 8.67652 8.55898 8.70614C8.63572 8.73576 8.71763 8.74964 8.79984 8.74696C8.97595 8.74259 9.14436 8.67381 9.27317 8.55363C9.62948 8.13608 10.072 7.80068 10.5703 7.57051C11.0687 7.34034 11.6109 7.22086 12.1598 7.22029C13.7332 7.22029 14.7132 8.23363 14.7132 9.49363V9.52696C14.7132 11.0003 13.5398 11.8203 11.6865 11.9603C11.6115 11.9632 11.5379 11.9819 11.4706 12.0152C11.4032 12.0485 11.3437 12.0957 11.2959 12.1536C11.2481 12.2115 11.213 12.2788 11.193 12.3512C11.173 12.4236 11.1685 12.4994 11.1798 12.5736C11.1798 12.5736 11.1798 14.1203 11.1798 14.407C11.1964 14.572 11.2739 14.7249 11.3972 14.8358C11.5205 14.9468 11.6807 15.0078 11.8465 15.007H11.9198C12.0849 14.9904 12.2378 14.9129 12.3487 14.7896C12.4597 14.6663 12.5207 14.5061 12.5198 14.3403V12.967C14.5198 12.687 16.1398 11.6336 16.1398 9.44696V9.41363C16.1198 7.41363 14.5598 5.94696 12.1932 5.94696Z" fill="#4A321F"/>
<path d="M11.8534 18.3005C12.3136 18.3005 12.6867 17.9274 12.6867 17.4671C12.6867 17.0069 12.3136 16.6338 11.8534 16.6338C11.3931 16.6338 11.02 17.0069 11.02 17.4671C11.02 17.9274 11.3931 18.3005 11.8534 18.3005Z" fill="#4A321F"/>
</g>
<defs>
<clipPath id="clip0_665_3436">
<rect width="24" height="24" fill="white"/>
</clipPath>
</defs>
</svg>
