<svg width="24" height="24" viewBox="0 0 24 24" fill="none" xmlns="http://www.w3.org/2000/svg">
<g clip-path="url(#clip0_665_3424)">
<path d="M22 12.667C21.9123 12.6675 21.8253 12.6507 21.7441 12.6176C21.6629 12.5844 21.589 12.5355 21.5267 12.4737L12 2.94037L2.47335 12.4737C2.34582 12.5829 2.18177 12.64 2.01398 12.6335C1.8462 12.627 1.68704 12.5575 1.56831 12.4387C1.44958 12.32 1.38002 12.1609 1.37354 11.9931C1.36706 11.8253 1.42413 11.6612 1.53335 11.5337L11.5334 1.53371C11.6583 1.40954 11.8272 1.33984 12.0034 1.33984C12.1795 1.33984 12.3484 1.40954 12.4734 1.53371L22.4734 11.5337C22.5651 11.6273 22.6272 11.7458 22.6519 11.8745C22.6767 12.0032 22.6629 12.1364 22.6124 12.2573C22.5619 12.3782 22.4769 12.4816 22.368 12.5545C22.2591 12.6273 22.1311 12.6665 22 12.667Z" fill="#D27A24"/>
<path d="M12 5.19336L4 13.22V21.3334C4 21.687 4.14048 22.0261 4.39052 22.2762C4.64057 22.5262 4.97971 22.6667 5.33333 22.6667H10V16H14V22.6667H18.6667C19.0203 22.6667 19.3594 22.5262 19.6095 22.2762C19.8595 22.0261 20 21.687 20 21.3334V13.1734L12 5.19336Z" fill="#D27A24"/>
</g>
<defs>
<clipPath id="clip0_665_3424">
<rect width="24" height="24" fill="white"/>
</clipPath>
</defs>
</svg>
