<svg width="16" height="17" viewBox="0 0 16 17" fill="none" xmlns="http://www.w3.org/2000/svg">
<g clip-path="url(#clip0_665_5067)">
<path d="M15.0534 4.19766L12.4445 1.57543C12.2721 1.40391 12.0388 1.30762 11.7956 1.30762C11.5524 1.30762 11.3191 1.40391 11.1467 1.57543L1.8978 10.811L1.05336 14.4554C1.02423 14.5887 1.02523 14.7267 1.05628 14.8595C1.08734 14.9923 1.14766 15.1165 1.23285 15.2229C1.31804 15.3294 1.42595 15.4156 1.54868 15.475C1.67141 15.5344 1.80588 15.5657 1.94225 15.5665C2.00577 15.5734 2.06984 15.5734 2.13336 15.5665L5.8178 14.7221L15.0534 5.49543C15.2249 5.32304 15.3212 5.08974 15.3212 4.84654C15.3212 4.60335 15.2249 4.37005 15.0534 4.19766ZM5.37336 13.9221L1.92003 14.6465L2.70669 11.2599L9.62669 4.36654L12.2934 7.03321L5.37336 13.9221ZM12.8889 6.38877L10.2222 3.7221L11.7689 2.18432L14.3911 4.85099L12.8889 6.38877Z" fill="#5C5C5C"/>
</g>
<defs>
<clipPath id="clip0_665_5067">
<rect width="16" height="16" fill="white" transform="translate(0 0.5)"/>
</clipPath>
</defs>
</svg>
