<svg width="16" height="16" viewBox="0 0 16 16" fill="none" xmlns="http://www.w3.org/2000/svg">
<g clip-path="url(#clip0_665_5307)">
<path d="M6.76412 9.17322C7.69216 10.1141 8.81466 10.8406 10.053 11.3021L11.7286 9.96877C11.7782 9.93456 11.8371 9.91625 11.8975 9.91625C11.9578 9.91625 12.0167 9.93456 12.0663 9.96877L15.1775 11.9732C15.2956 12.0442 15.3955 12.1417 15.4695 12.258C15.5435 12.3743 15.5894 12.5062 15.6036 12.6433C15.6178 12.7803 15.6 12.9189 15.5515 13.0479C15.503 13.1768 15.4251 13.2928 15.3241 13.3866L13.8663 14.8266C13.6576 15.0328 13.401 15.1842 13.1195 15.2672C12.838 15.3502 12.5403 15.3622 12.253 15.3021C9.3874 14.71 6.7461 13.3239 4.63078 11.3021C2.56276 9.25984 1.13159 6.6615 0.510783 3.82211C0.449479 3.53928 0.462274 3.24541 0.547928 2.96898C0.633582 2.69256 0.78919 2.44294 0.999672 2.24433L2.51078 0.786551C2.60429 0.690456 2.71833 0.616762 2.84436 0.570985C2.97039 0.525209 3.10514 0.508537 3.23852 0.522217C3.3719 0.535897 3.50047 0.579576 3.61458 0.649982C3.72869 0.720388 3.82539 0.815697 3.89745 0.928773L5.96856 3.99988C6.00428 4.04811 6.02357 4.10654 6.02357 4.16655C6.02357 4.22657 6.00428 4.28499 5.96856 4.33322L4.60412 5.97322C5.07771 7.18697 5.81555 8.28007 6.76412 9.17322Z" fill="#4A321F"/>
</g>
<defs>
<clipPath id="clip0_665_5307">
<rect width="16" height="16" fill="white"/>
</clipPath>
</defs>
</svg>
