<svg width="16" height="16" viewBox="0 0 16 16" fill="none" xmlns="http://www.w3.org/2000/svg">
<path d="M1.3335 7.99967C1.3335 11.6817 4.31816 14.6663 8.00016 14.6663C11.6822 14.6663 14.6668 11.6817 14.6668 7.99967C14.6668 4.31767 11.6822 1.33301 8.00016 1.33301C4.31816 1.33301 1.3335 4.31767 1.3335 7.99967ZM13.3335 7.99967C13.3335 9.41416 12.7716 10.7707 11.7714 11.7709C10.7712 12.7711 9.41465 13.333 8.00016 13.333C6.58568 13.333 5.22912 12.7711 4.22893 11.7709C3.22873 10.7707 2.66683 9.41416 2.66683 7.99967C2.66683 6.58519 3.22873 5.22863 4.22893 4.22844C5.22912 3.22824 6.58568 2.66634 8.00016 2.66634C9.41465 2.66634 10.7712 3.22824 11.7714 4.22844C12.7716 5.22863 13.3335 6.58519 13.3335 7.99967ZM8.00016 7.99967V3.99967C9.06103 3.99967 10.0784 4.4211 10.8286 5.17125C11.5787 5.92139 12.0002 6.93881 12.0002 7.99967H8.00016Z" fill="#C56E0F"/>
</svg>
