<svg width="14" height="14" viewBox="0 0 14 14" fill="none" xmlns="http://www.w3.org/2000/svg">
<path d="M6.99967 13.6668C3.31767 13.6668 0.333008 10.6822 0.333008 7.00016C0.333008 3.31816 3.31767 0.333496 6.99967 0.333496C10.6817 0.333496 13.6663 3.31816 13.6663 7.00016C13.6663 10.6822 10.6817 13.6668 6.99967 13.6668ZM6.33301 9.00016V10.3335H7.66634V9.00016H6.33301ZM7.66634 7.9035C8.20212 7.74201 8.66208 7.39346 8.96245 6.92132C9.26281 6.44918 9.38361 5.88487 9.30283 5.33114C9.22205 4.77742 8.94508 4.27112 8.52235 3.90447C8.09962 3.53781 7.55926 3.33519 6.99967 3.3335C6.46021 3.33333 5.93735 3.52009 5.52008 3.86201C5.10281 4.20392 4.8169 4.67986 4.71101 5.20883L6.01901 5.47083C6.05613 5.28512 6.14522 5.11376 6.27592 4.97671C6.40662 4.83965 6.57355 4.74253 6.75729 4.69663C6.94103 4.65074 7.13403 4.65797 7.31382 4.71748C7.49362 4.77698 7.65282 4.88632 7.7729 5.03277C7.89298 5.17922 7.969 5.35676 7.99213 5.54472C8.01525 5.73269 7.98453 5.92336 7.90352 6.09455C7.82252 6.26574 7.69457 6.4104 7.53456 6.51172C7.37455 6.61303 7.18906 6.66682 6.99967 6.66683C6.82286 6.66683 6.65329 6.73707 6.52827 6.86209C6.40325 6.98712 6.33301 7.15669 6.33301 7.3335V8.3335H7.66634V7.9035Z" fill="#4A321F"/>
</svg>
