<svg width="24" height="24" viewBox="0 0 24 24" fill="none" xmlns="http://www.w3.org/2000/svg">
<g clip-path="url(#clip0_368_1964)">
<path d="M14 30C3.2 29.6 0.166667 21.5 0 17.5C7.29976 11.8224 13.7807 29.5344 25 14C25.953 15.1806 26.3719 15.9001 26.5 17.5C26.1667 21.6667 23.2 30 14 30Z" fill="#D27A24"/>
<path d="M9.16016 15H6.52734V14.7227C6.60547 14.7174 6.72656 14.707 6.89062 14.6914C7.05729 14.6732 7.17188 14.6549 7.23438 14.6367C7.3151 14.6107 7.3763 14.569 7.41797 14.5117C7.46224 14.4518 7.48438 14.3633 7.48438 14.2461V11.5039H6.51172V11.1758H6.72656C7.00781 11.1758 7.25911 11.1237 7.48047 11.0195C7.70443 10.9154 7.86458 10.8034 7.96094 10.6836H8.28516C8.27734 10.8529 8.26953 11.0508 8.26172 11.2773C8.25391 11.5039 8.25 11.707 8.25 11.8867V14.2031C8.25 14.2943 8.26953 14.3763 8.30859 14.4492C8.35026 14.5195 8.40885 14.5716 8.48438 14.6055C8.55208 14.6341 8.66276 14.6602 8.81641 14.6836C8.97005 14.707 9.08464 14.7201 9.16016 14.7227V15ZM12.8359 9.05078L10.1367 16.6562H9.62891L12.3203 9.05078H12.8359ZM17.4219 14.6484H16.6289V16.4258H15.8789V14.6484H13.3789V14.0469L16.1172 10.707H16.6289V14.1367H17.4219V14.6484ZM15.8789 14.1367V11.5781L13.7695 14.1367H15.8789Z" fill="#3C1F0E"/>
</g>
<rect x="1" y="1" width="22" height="22" rx="11" stroke="#A7A7A7" stroke-opacity="0.14" stroke-width="2"/>
<defs>
<clipPath id="clip0_368_1964">
<rect width="24" height="24" rx="12" fill="white"/>
</clipPath>
</defs>
</svg>
