<svg width="24" height="25" viewBox="0 0 24 25" fill="none" xmlns="http://www.w3.org/2000/svg">
<g clip-path="url(#clip0_395_3940)">
<path d="M12.9057 26.5C-0.135849 25.875 -3.79874 13.2188 -4 6.96875C4.81481 -1.90249 12.6409 25.7725 26.1887 1.5C27.3394 3.34471 27.8454 4.46898 28 6.96875C27.5975 13.4792 24.0151 26.5 12.9057 26.5Z" fill="#D27A24"/>
<path d="M11.2344 14.6484H10.4414V16.4258H9.69141V14.6484H7.19141V14.0469L9.92969 10.707H10.4414V14.1367H11.2344V14.6484ZM9.69141 14.1367V11.5781L7.58203 14.1367H9.69141ZM14.9219 9.05078L12.2227 16.6562H11.7148L14.4062 9.05078H14.9219ZM19.5078 14.6484H18.7148V16.4258H17.9648V14.6484H15.4648V14.0469L18.2031 10.707H18.7148V14.1367H19.5078V14.6484ZM17.9648 14.1367V11.5781L15.8555 14.1367H17.9648Z" fill="#3C1F0E"/>
</g>
<rect x="1" y="1.5" width="22" height="22" rx="11" stroke="#A7A7A7" stroke-opacity="0.14" stroke-width="2"/>
<defs>
<clipPath id="clip0_395_3940">
<rect y="0.5" width="24" height="24" rx="12" fill="white"/>
</clipPath>
</defs>
</svg>
