<svg width="24" height="25" viewBox="0 0 24 25" fill="none" xmlns="http://www.w3.org/2000/svg">
<g clip-path="url(#clip0_368_2043)">
<path d="M13 24.5C2.2 24.1 -0.833333 16 -1 12C6.29976 6.32241 12.7807 24.0344 24 8.5C24.953 9.68062 25.3719 10.4001 25.5 12C25.1667 16.1667 22.2 24.5 13 24.5Z" fill="#D27A24"/>
<path d="M6.90234 16.4258C6.65755 16.4258 6.43359 16.3945 6.23047 16.332C6.02734 16.2721 5.85286 16.1901 5.70703 16.0859C5.5612 15.9818 5.44792 15.862 5.36719 15.7266C5.28906 15.5911 5.25 15.4518 5.25 15.3086C5.25 15.181 5.28125 15.0664 5.34375 14.9648C5.40625 14.8607 5.50651 14.8086 5.64453 14.8086C5.80078 14.8086 5.91927 14.8477 6 14.9258C6.08333 15.0013 6.125 15.0885 6.125 15.1875C6.125 15.2708 6.11068 15.3763 6.08203 15.5039C6.05599 15.6315 6.03516 15.7227 6.01953 15.7773C6.03776 15.8008 6.07031 15.832 6.11719 15.8711C6.16667 15.9102 6.22656 15.9453 6.29688 15.9766C6.38021 16.0156 6.46745 16.0469 6.55859 16.0703C6.64974 16.0938 6.77865 16.1055 6.94531 16.1055C7.10156 16.1055 7.2513 16.0794 7.39453 16.0273C7.54036 15.9753 7.66797 15.8919 7.77734 15.7773C7.89193 15.6576 7.98047 15.5169 8.04297 15.3555C8.10807 15.1966 8.14062 14.987 8.14062 14.7266C8.14062 14.5859 8.125 14.4466 8.09375 14.3086C8.0651 14.1706 8.01042 14.0508 7.92969 13.9492C7.84896 13.8477 7.73828 13.7695 7.59766 13.7148C7.45964 13.6576 7.28385 13.6289 7.07031 13.6289H6.55859V13.1797H6.89844C7.25781 13.1797 7.51693 13.0807 7.67578 12.8828C7.83464 12.6849 7.91406 12.3867 7.91406 11.9883C7.91406 11.6628 7.83724 11.418 7.68359 11.2539C7.52995 11.0872 7.3125 11.0039 7.03125 11.0039C6.89583 11.0039 6.78385 11.0208 6.69531 11.0547C6.60938 11.0859 6.53906 11.1172 6.48438 11.1484C6.41927 11.1849 6.36589 11.2253 6.32422 11.2695C6.28255 11.3138 6.2513 11.3464 6.23047 11.3672C6.2487 11.4505 6.27083 11.5534 6.29688 11.6758C6.32292 11.7956 6.33594 11.9102 6.33594 12.0195C6.33594 12.1159 6.29427 12.2031 6.21094 12.2812C6.13021 12.3568 6.01042 12.3945 5.85156 12.3945C5.71354 12.3945 5.61198 12.3451 5.54688 12.2461C5.48438 12.1471 5.45312 12.0326 5.45312 11.9023C5.45312 11.7669 5.49089 11.6289 5.56641 11.4883C5.64193 11.3477 5.75391 11.2161 5.90234 11.0938C6.05078 10.9714 6.23177 10.8724 6.44531 10.7969C6.65885 10.7214 6.90495 10.6836 7.18359 10.6836C7.50391 10.6836 7.76823 10.7318 7.97656 10.8281C8.1875 10.9219 8.35286 11.0365 8.47266 11.1719C8.58984 11.3047 8.67057 11.444 8.71484 11.5898C8.75911 11.7357 8.78125 11.8607 8.78125 11.9648C8.78125 12.0951 8.76302 12.2266 8.72656 12.3594C8.6901 12.4896 8.63021 12.6107 8.54688 12.7227C8.45573 12.8451 8.33464 12.957 8.18359 13.0586C8.03516 13.1576 7.84766 13.2383 7.62109 13.3008V13.3633C7.76693 13.3763 7.92188 13.4089 8.08594 13.4609C8.2526 13.513 8.40234 13.5898 8.53516 13.6914C8.67318 13.7982 8.78646 13.9362 8.875 14.1055C8.96354 14.2721 9.00781 14.4844 9.00781 14.7422C9.00781 15.2422 8.80729 15.6471 8.40625 15.957C8.00521 16.2695 7.50391 16.4258 6.90234 16.4258ZM12.8125 9.05078L10.1133 16.6562H9.60547L12.2969 9.05078H12.8125ZM17.3984 14.6484H16.6055V16.4258H15.8555V14.6484H13.3555V14.0469L16.0938 10.707H16.6055V14.1367H17.3984V14.6484ZM15.8555 14.1367V11.5781L13.7461 14.1367H15.8555Z" fill="#3C1F0E"/>
</g>
<rect x="1" y="1.5" width="22" height="22" rx="11" stroke="#A7A7A7" stroke-opacity="0.14" stroke-width="2"/>
<defs>
<clipPath id="clip0_368_2043">
<rect y="0.5" width="24" height="24" rx="12" fill="white"/>
</clipPath>
</defs>
</svg>
