<svg width="24" height="24" viewBox="0 0 24 24" fill="none" xmlns="http://www.w3.org/2000/svg">
<g clip-path="url(#clip0_368_2036)">
<path d="M13 28C2.2 27.6 -0.833333 19.5 -1 15.5C6.29976 9.82241 12.7807 27.5344 24 12C24.953 13.1806 25.3719 13.9001 25.5 15.5C25.1667 19.6667 22.2 28 13 28Z" fill="#D27A24"/>
<path d="M9.08984 15H5.42969V14.4688C5.5 14.388 5.59766 14.2982 5.72266 14.1992C5.84766 14.0977 5.99609 13.9883 6.16797 13.8711C6.27214 13.8008 6.39714 13.724 6.54297 13.6406C6.6888 13.5573 6.85417 13.4661 7.03906 13.3672C7.24479 13.2578 7.40234 13.1615 7.51172 13.0781C7.6237 12.9948 7.72526 12.8919 7.81641 12.7695C7.8763 12.6888 7.92448 12.5885 7.96094 12.4688C7.9974 12.3464 8.01562 12.1732 8.01562 11.9492C8.01562 11.6237 7.92839 11.3854 7.75391 11.2344C7.57943 11.0807 7.35547 11.0039 7.08203 11.0039C6.91276 11.0039 6.7526 11.0378 6.60156 11.1055C6.45052 11.1706 6.33724 11.2617 6.26172 11.3789C6.27995 11.4622 6.30208 11.5612 6.32812 11.6758C6.35677 11.7904 6.37109 11.9023 6.37109 12.0117C6.37109 12.1107 6.32943 12.1992 6.24609 12.2773C6.16536 12.3529 6.04427 12.3906 5.88281 12.3906C5.7526 12.3906 5.65234 12.3464 5.58203 12.2578C5.51172 12.1667 5.47656 12.0456 5.47656 11.8945C5.47656 11.7539 5.51562 11.6133 5.59375 11.4727C5.67188 11.3294 5.78385 11.1979 5.92969 11.0781C6.07292 10.9609 6.25 10.8659 6.46094 10.793C6.67188 10.7201 6.89974 10.6836 7.14453 10.6836C7.67839 10.6836 8.10156 10.8034 8.41406 11.043C8.72917 11.2799 8.88672 11.5977 8.88672 11.9961C8.88672 12.1862 8.85807 12.3594 8.80078 12.5156C8.74609 12.6719 8.65625 12.8099 8.53125 12.9297C8.39323 13.0625 8.23177 13.1771 8.04688 13.2734C7.86198 13.3672 7.57943 13.4987 7.19922 13.668C6.97266 13.7695 6.76172 13.8763 6.56641 13.9883C6.37109 14.0977 6.21094 14.2044 6.08594 14.3086H9.08984V15ZM12.8672 9.05078L10.168 16.6562H9.66016L12.3516 9.05078H12.8672ZM17.4531 14.6484H16.6602V16.4258H15.9102V14.6484H13.4102V14.0469L16.1484 10.707H16.6602V14.1367H17.4531V14.6484ZM15.9102 14.1367V11.5781L13.8008 14.1367H15.9102Z" fill="#3C1F0E"/>
</g>
<rect x="1" y="1" width="22" height="22" rx="11" stroke="#A7A7A7" stroke-opacity="0.14" stroke-width="2"/>
<defs>
<clipPath id="clip0_368_2036">
<rect width="24" height="24" rx="12" fill="white"/>
</clipPath>
</defs>
</svg>
